{
  "accessors": [
    {
      "bufferView": 2,
      "componentType": 5126,
      "count": 5199,
      "max": [
        32.585838317871094,
        102.53791809082031,
        42.489219665527344
      ],
      "min": [
        -35.71558380126953,
        72.97148895263672,
        -22.942235946655273
      ],
      "type": "VEC3"
    },
    {
      "bufferView": 2,
      "byteOffset": 62388,
      "componentType": 5126,
      "count": 5199,
      "max": [
        0.9993885159492493,
        0.9547670483589172,
        0.9996640682220459
      ],
      "min": [
        -0.9989776015281677,
        -0.9991522431373596,
        -0.9972127676010132
      ],
      "type": "VEC3"
    },
    {
      "bufferView": 3,
      "componentType": 5126,
      "count": 5199,
      "max": [
        0.9999528527259827,
        0.9984515905380249,
        0.9999081492424011,
        1.0
      ],
      "min": [
        -0.9991499781608582,
        -0.9998482465744019,
        -0.9997159242630005,
        -1.0
      ],
      "type": "VEC4"
    },
    {
      "bufferView": 1,
      "componentType": 5126,
      "count": 5199,
      "max": [
        0.9935551285743713,
        0.9796841740608215
      ],
      "min": [
        0.02176341414451599,
        0.01209932565689087
      ],
      "type": "VEC2"
    },
    {
      "bufferView": 0,
      "componentType": 5125,
      "count": 28620,
      "type": "SCALAR"
    },
    {
      "bufferView": 2,
      "byteOffset": 124776,
      "componentType": 5126,
      "count": 2064,
      "max": [
        4.6006879806518555,
        166.72027587890625,
        26.371171951293945
      ],
      "min": [
        -10.660255432128906,
        162.42555236816406,
        21.555477142333984
      ],
      "type": "VEC3"
    },
    {
      "bufferView": 2,
      "byteOffset": 149544,
      "componentType": 5126,
      "count": 2064,
      "max": [
        0.9996460676193237,
        0.9697080850601196,
        0.9833276271820068
      ],
      "min": [
        -0.999427855014801,
        -0.9993184804916382,
        -0.9762416481971741
      ],
      "type": "VEC3"
    },
    {
      "bufferView": 3,
      "byteOffset": 83184,
      "componentType": 5126,
      "count": 2064,
      "max": [
        1.0,
        0.992637574672699,
        0.9900423288345337,
        1.0
      ],
      "min": [
        -1.0,
        -0.9998173117637634,
        -0.9995206594467163,
        -1.0
      ],
      "type": "VEC4"
    },
    {
      "bufferView": 1,
      "byteOffset": 41592,
      "componentType": 5126,
      "count": 2064,
      "max": [
        0.891251266002655,
        0.3225281238555908
      ],
      "min": [
        0.029296875,
        0.029296875
      ],
      "type": "VEC2"
    },
    {
      "bufferView": 0,
      "byteOffset": 114480,
      "componentType": 5125,
      "count": 9858,
      "type": "SCALAR"
    },
    {
      "bufferView": 2,
      "byteOffset": 174312,
      "componentType": 5126,
      "count": 2489,
      "max": [
        6.030374526977539,
        178.64183044433594,
        30.003326416015625
      ],
      "min": [
        -12.561223983764648,
        154.9776153564453,
        5.831297874450684
      ],
      "type": "VEC3"
    },
    {
      "bufferView": 2,
      "byteOffset": 204180,
      "componentType": 5126,
      "count": 2489,
      "max": [
        0.9997761845588684,
        0.9987117648124695,
        0.9997528791427612
      ],
      "min": [
        -0.999991238117218,
        -0.9998204708099365,
        -0.9997581839561462
      ],
      "type": "VEC3"
    },
    {
      "bufferView": 3,
      "byteOffset": 116208,
      "componentType": 5126,
      "count": 2489,
      "max": [
        0.999961793422699,
        0.9876687526702881,
        0.9998588562011719,
        1.0
      ],
      "min": [
        -0.998577892780304,
        -0.9676852226257324,
        -0.9999328851699829,
        -1.0
      ],
      "type": "VEC4"
    },
    {
      "bufferView": 1,
      "byteOffset": 58104,
      "componentType": 5126,
      "count": 2489,
      "max": [
        0.970703125,
        0.9098902344703674
      ],
      "min": [
        0.02930537797510624,
        0.029296875
      ],
      "type": "VEC2"
    },
    {
      "bufferView": 0,
      "byteOffset": 153912,
      "componentType": 5125,
      "count": 14004,
      "type": "SCALAR"
    },
    {
      "bufferView": 2,
      "byteOffset": 234048,
      "componentType": 5126,
      "count": 402,
      "max": [
        3.5351004600524902,
        164.94265747070313,
        23.500503540039063
      ],
      "min": [
        -1.7024496793746948,
        159.67950439453125,
        18.312849044799805
      ],
      "type": "VEC3"
    },
    {
      "bufferView": 2,
      "byteOffset": 238872,
      "componentType": 5126,
      "count": 402,
      "max": [
        0.9984608292579651,
        0.9965423941612244,
        0.9951220750808716
      ],
      "min": [
        -0.9979435205459595,
        -0.9967703819274902,
        -0.9994890093803406
      ],
      "type": "VEC3"
    },
    {
      "bufferView": 3,
      "byteOffset": 156032,
      "componentType": 5126,
      "count": 402,
      "max": [
        0.9986432790756226,
        0.5008547306060791,
        0.9958449006080627,
        1.0
      ],
      "min": [
        -0.7473325133323669,
        -0.8765959739685059,
        -0.9978777170181274,
        1.0
      ],
      "type": "VEC4"
    },
    {
      "bufferView": 1,
      "byteOffset": 78016,
      "componentType": 5126,
      "count": 402,
      "max": [
        0.9746418595314026,
        0.98046875
      ],
      "min": [
        0.01953125,
        0.5044416189193726
      ],
      "type": "VEC2"
    },
    {
      "bufferView": 0,
      "byteOffset": 209928,
      "componentType": 5125,
      "count": 2280,
      "type": "SCALAR"
    },
    {
      "bufferView": 2,
      "byteOffset": 243696,
      "componentType": 5126,
      "count": 402,
      "max": [
        3.566850185394287,
        164.4647979736328,
        23.36695671081543
      ],
      "min": [
        -1.6901291608810425,
        159.20668029785156,
        18.123619079589844
      ],
      "type": "VEC3"
    },
    {
      "bufferView": 2,
      "byteOffset": 248520,
      "componentType": 5126,
      "count": 402,
      "max": [
        0.9979267716407776,
        0.996522068977356,
        0.9950194358825684
      ],
      "min": [
        -0.998332679271698,
        -0.995966911315918,
        -0.9958330988883972
      ],
      "type": "VEC3"
    },
    {
      "bufferView": 3,
      "byteOffset": 162464,
      "componentType": 5126,
      "count": 402,
      "max": [
        0.9975100159645081,
        0.5066948533058167,
        0.9979373812675476,
        1.0
      ],
      "min": [
        -0.7495561838150024,
        -0.8769730925559998,
        -0.9977562427520752,
        1.0
      ],
      "type": "VEC4"
    },
    {
      "bufferView": 1,
      "byteOffset": 81232,
      "componentType": 5126,
      "count": 402,
      "max": [
        0.9746418595314026,
        0.49020320177078247
      ],
      "min": [
        0.01953125,
        0.01953125
      ],
      "type": "VEC2"
    },
    {
      "bufferView": 0,
      "byteOffset": 219048,
      "componentType": 5125,
      "count": 2280,
      "type": "SCALAR"
    },
    {
      "bufferView": 2,
      "byteOffset": 253344,
      "componentType": 5126,
      "count": 4894,
      "max": [
        13.59717082977295,
        31.22418212890625,
        53.757545471191406
      ],
      "min": [
        -35.65823745727539,
        -0.2854664921760559,
        -33.29318618774414
      ],
      "type": "VEC3"
    },
    {
      "bufferView": 2,
      "byteOffset": 312072,
      "componentType": 5126,
      "count": 4894,
      "max": [
        0.999916136264801,
        0.9999982714653015,
        0.9997579455375671
      ],
      "min": [
        -0.999805212020874,
        -0.9999995231628418,
        -0.9999720454216003
      ],
      "type": "VEC3"
    },
    {
      "bufferView": 3,
      "byteOffset": 168896,
      "componentType": 5126,
      "count": 4894,
      "max": [
        0.9942827820777893,
        0.999919593334198,
        0.9999430179595947,
        1.0
      ],
      "min": [
        -0.9975624680519104,
        -0.9998344779014587,
        -0.9983310699462891,
        -1.0
      ],
      "type": "VEC4"
    },
    {
      "bufferView": 1,
      "byteOffset": 84448,
      "componentType": 5126,
      "count": 4894,
      "max": [
        0.9872626662254333,
        0.9881112575531006
      ],
      "min": [
        0.0221091415733099,
        0.016350463032722473
      ],
      "type": "VEC2"
    },
    {
      "bufferView": 0,
      "byteOffset": 228168,
      "componentType": 5125,
      "count": 26292,
      "type": "SCALAR"
    },
    {
      "bufferView": 2,
      "byteOffset": 370800,
      "componentType": 5126,
      "count": 4975,
      "max": [
        14.149373054504395,
        101.13377380371094,
        36.22042465209961
      ],
      "min": [
        -25.996305465698242,
        21.152395248413086,
        -30.274337768554688
      ],
      "type": "VEC3"
    },
    {
      "bufferView": 2,
      "byteOffset": 430500,
      "componentType": 5126,
      "count": 4975,
      "max": [
        0.9991839528083801,
        0.9999947547912598,
        0.9992599487304688
      ],
      "min": [
        -0.9999695420265198,
        -0.9998005628585815,
        -0.9996318221092224
      ],
      "type": "VEC3"
    },
    {
      "bufferView": 3,
      "byteOffset": 247200,
      "componentType": 5126,
      "count": 4975,
      "max": [
        0.9998512268066406,
        0.9509010910987854,
        0.9999767541885376,
        1.0
      ],
      "min": [
        -0.9994557499885559,
        -0.9493876099586487,
        -0.9997702240943909,
        1.0
      ],
      "type": "VEC4"
    },
    {
      "bufferView": 1,
      "byteOffset": 123600,
      "componentType": 5126,
      "count": 4975,
      "max": [
        0.7915111780166626,
        0.9472647905349731
      ],
      "min": [
        0.23936468362808228,
        0.17807018756866455
      ],
      "type": "VEC2"
    },
    {
      "bufferView": 0,
      "byteOffset": 333336,
      "componentType": 5125,
      "count": 27108,
      "type": "SCALAR"
    },
    {
      "bufferView": 2,
      "byteOffset": 490200,
      "componentType": 5126,
      "count": 7657,
      "max": [
        34.313411712646484,
        155.23129272460938,
        25.059955596923828
      ],
      "min": [
        -34.561912536621094,
        91.37029266357422,
        -26.998422622680664
      ],
      "type": "VEC3"
    },
    {
      "bufferView": 2,
      "byteOffset": 582084,
      "componentType": 5126,
      "count": 7657,
      "max": [
        0.999755322933197,
        0.9989845752716064,
        0.9998111128807068
      ],
      "min": [
        -0.9998701214790344,
        -0.9999978542327881,
        -0.9992679953575134
      ],
      "type": "VEC3"
    },
    {
      "bufferView": 3,
      "byteOffset": 326800,
      "componentType": 5126,
      "count": 7657,
      "max": [
        0.9997227787971497,
        0.9934650659561157,
        0.9999911189079285,
        1.0
      ],
      "min": [
        -0.999872088432312,
        -0.9312930107116699,
        -0.9999828934669495,
        -1.0
      ],
      "type": "VEC4"
    },
    {
      "bufferView": 1,
      "byteOffset": 163400,
      "componentType": 5126,
      "count": 7657,
      "max": [
        0.9862580895423889,
        0.9500553011894226
      ],
      "min": [
        0.01953125,
        0.01953125
      ],
      "type": "VEC2"
    },
    {
      "bufferView": 0,
      "byteOffset": 441768,
      "componentType": 5125,
      "count": 42624,
      "type": "SCALAR"
    },
    {
      "bufferView": 2,
      "byteOffset": 673968,
      "componentType": 5126,
      "count": 15776,
      "max": [
        9.890597343444824,
        177.01104736328125,
        27.467823028564453
      ],
      "min": [
        -16.254457473754883,
        141.65338134765625,
        4.0106730461120605
      ],
      "type": "VEC3"
    },
    {
      "bufferView": 2,
      "byteOffset": 863280,
      "componentType": 5126,
      "count": 15776,
      "max": [
        0.9999562501907349,
        0.9997304081916809,
        0.9998447299003601
      ],
      "min": [
        -0.9999985098838806,
        -0.9998550415039063,
        -0.999819278717041
      ],
      "type": "VEC3"
    },
    {
      "bufferView": 3,
      "byteOffset": 449312,
      "componentType": 5126,
      "count": 15776,
      "max": [
        0.9999783039093018,
        0.9987845420837402,
        0.9999674558639526,
        1.0
      ],
      "min": [
        -0.9999372959136963,
        -0.9993457198143005,
        -0.9999876618385315,
        -1.0
      ],
      "type": "VEC4"
    },
    {
      "bufferView": 1,
      "byteOffset": 224656,
      "componentType": 5126,
      "count": 15776,
      "max": [
        0.9735627770423889,
        0.9832332134246826
      ],
      "min": [
        0.009765625,
        0.009765625
      ],
      "type": "VEC2"
    },
    {
      "bufferView": 0,
      "byteOffset": 612264,
      "componentType": 5125,
      "count": 91356,
      "type": "SCALAR"
    }
  ],
  "asset": {
    "extras": {
      "author": "fxmelard (https://sketchfab.com/fx)",
      "license": "CC-BY-4.0 (http://creativecommons.org/licenses/by/4.0/)",
      "source": "https://sketchfab.com/3d-models/spock-8fc07ced0a9f471085a486f33da3084c",
      "title": "Spock"
    },
    "generator": "Sketchfab-12.68.0",
    "version": "2.0"
  },
  "bufferViews": [
    {
      "buffer": 0,
      "byteLength": 977688,
      "name": "floatBufferViews",
      "target": 34963
    },
    {
      "buffer": 0,
      "byteLength": 350864,
      "byteOffset": 977688,
      "byteStride": 8,
      "name": "floatBufferViews",
      "target": 34962
    },
    {
      "buffer": 0,
      "byteLength": 1052592,
      "byteOffset": 1328552,
      "byteStride": 12,
      "name": "floatBufferViews",
      "target": 34962
    },
    {
      "buffer": 0,
      "byteLength": 701728,
      "byteOffset": 2381144,
      "byteStride": 16,
      "name": "floatBufferViews",
      "target": 34962
    }
  ],
  "buffers": [
    {
      "byteLength": 3082872,
      "uri": "scene.bin"
    }
  ],
  "images": [
    {
      "uri": "textures/SHD_Skin_baseColor.png"
    },
    {
      "uri": "textures/SHD_Skin_metallicRoughness.png"
    },
    {
      "uri": "textures/SHD_Skin_normal.png"
    },
    {
      "uri": "textures/SHD_Hair_baseColor.png"
    },
    {
      "uri": "textures/SHD_Hair_metallicRoughness.png"
    },
    {
      "uri": "textures/SHD_Hair_normal.png"
    },
    {
      "uri": "textures/SHD_Eye_baseColor.png"
    },
    {
      "uri": "textures/SHD_Eye_metallicRoughness.png"
    },
    {
      "uri": "textures/SHD_Eye_normal.png"
    },
    {
      "uri": "textures/SHD_Clothes_baseColor.png"
    },
    {
      "uri": "textures/SHD_Clothes_metallicRoughness.png"
    },
    {
      "uri": "textures/SHD_Clothes_normal.png"
    }
  ],
  "materials": [
    {
      "doubleSided": true,
      "name": "SHD_Skin",
      "normalTexture": {
        "index": 2
      },
      "pbrMetallicRoughness": {
        "baseColorTexture": {
          "index": 0
        },
        "metallicRoughnessTexture": {
          "index": 1
        }
      }
    },
    {
      "doubleSided": true,
      "name": "SHD_Hair",
      "normalTexture": {
        "index": 5
      },
      "pbrMetallicRoughness": {
        "baseColorTexture": {
          "index": 3
        },
        "metallicRoughnessTexture": {
          "index": 4
        }
      }
    },
    {
      "doubleSided": true,
      "name": "SHD_Eye",
      "normalTexture": {
        "index": 8
      },
      "pbrMetallicRoughness": {
        "baseColorTexture": {
          "index": 6
        },
        "metallicRoughnessTexture": {
          "index": 7
        },
        "roughnessFactor": 0.5975670187
      }
    },
    {
      "doubleSided": true,
      "name": "SHD_Clothes",
      "normalTexture": {
        "index": 11
      },
      "pbrMetallicRoughness": {
        "baseColorTexture": {
          "index": 9
        },
        "metallicRoughnessTexture": {
          "index": 10
        }
      }
    }
  ],
  "meshes": [
    {
      "name": "Hands_SHD_Skin_0",
      "primitives": [
        {
          "attributes": {
            "NORMAL": 1,
            "POSITION": 0,
            "TANGENT": 2,
            "TEXCOORD_0": 3
          },
          "indices": 4,
          "material": 0,
          "mode": 4
        }
      ]
    },
    {
      "name": "Brows_SHD_Hair_0",
      "primitives": [
        {
          "attributes": {
            "NORMAL": 6,
            "POSITION": 5,
            "TANGENT": 7,
            "TEXCOORD_0": 8
          },
          "indices": 9,
          "material": 1,
          "mode": 4
        }
      ]
    },
    {
      "name": "Hair_SHD_Hair_0",
      "primitives": [
        {
          "attributes": {
            "NORMAL": 11,
            "POSITION": 10,
            "TANGENT": 12,
            "TEXCOORD_0": 13
          },
          "indices": 14,
          "material": 1,
          "mode": 4
        }
      ]
    },
    {
      "name": "EyeGlobeLeft_SHD_Eye_0",
      "primitives": [
        {
          "attributes": {
            "NORMAL": 16,
            "POSITION": 15,
            "TANGENT": 17,
            "TEXCOORD_0": 18
          },
          "indices": 19,
          "material": 2,
          "mode": 4
        }
      ]
    },
    {
      "name": "EyeGlobeRight_SHD_Eye_0",
      "primitives": [
        {
          "attributes": {
            "NORMAL": 21,
            "POSITION": 20,
            "TANGENT": 22,
            "TEXCOORD_0": 23
          },
          "indices": 24,
          "material": 2,
          "mode": 4
        }
      ]
    },
    {
      "name": "Boot_SHD_Clothes_0",
      "primitives": [
        {
          "attributes": {
            "NORMAL": 26,
            "POSITION": 25,
            "TANGENT": 27,
            "TEXCOORD_0": 28
          },
          "indices": 29,
          "material": 3,
          "mode": 4
        }
      ]
    },
    {
      "name": "Pants_SHD_Clothes_0",
      "primitives": [
        {
          "attributes": {
            "NORMAL": 31,
            "POSITION": 30,
            "TANGENT": 32,
            "TEXCOORD_0": 33
          },
          "indices": 34,
          "material": 3,
          "mode": 4
        }
      ]
    },
    {
      "name": "Jacket_SHD_Clothes_0",
      "primitives": [
        {
          "attributes": {
            "NORMAL": 36,
            "POSITION": 35,
            "TANGENT": 37,
            "TEXCOORD_0": 38
          },
          "indices": 39,
          "material": 3,
          "mode": 4
        }
      ]
    },
    {
      "name": "HeadHead_SHD_Skin_0",
      "primitives": [
        {
          "attributes": {
            "NORMAL": 41,
            "POSITION": 40,
            "TANGENT": 42,
            "TEXCOORD_0": 43
          },
          "indices": 44,
          "material": 0,
          "mode": 4
        }
      ]
    }
  ],
  "nodes": [
    {
      "children": [
        1
      ],
      "matrix": [
        1.0,
        0.0,
        0.0,
        0.0,
        0.0,
        2.220446049250313e-16,
        -1.0,
        0.0,
        0.0,
        1.0,
        2.220446049250313e-16,
        0.0,
        0.0,
        0.0,
        0.0,
        1.0
      ],
      "name": "Sketchfab_model"
    },
    {
      "children": [
        2
      ],
      "matrix": [
        1.0,
        0.0,
        0.0,
        0.0,
        0.0,
        0.0,
        1.0,
        0.0,
        0.0,
        -1.0,
        0.0,
        0.0,
        0.0,
        0.0,
        0.0,
        1.0
      ],
      "name": "488bb16f52e5417e91e22d0606c6d30e.fbx"
    },
    {
      "children": [
        3,
        5,
        7,
        9,
        11,
        13,
        15,
        17,
        19
      ],
      "name": "RootNode"
    },
    {
      "children": [
        4
      ],
      "name": "Hands"
    },
    {
      "mesh": 0,
      "name": "Hands_SHD_Skin_0"
    },
    {
      "children": [
        6
      ],
      "name": "Brows"
    },
    {
      "mesh": 1,
      "name": "Brows_SHD_Hair_0"
    },
    {
      "children": [
        8
      ],
      "name": "Hair"
    },
    {
      "mesh": 2,
      "name": "Hair_SHD_Hair_0"
    },
    {
      "children": [
        10
      ],
      "name": "EyeGlobeLeft"
    },
    {
      "mesh": 3,
      "name": "EyeGlobeLeft_SHD_Eye_0"
    },
    {
      "children": [
        12
      ],
      "matrix": [
        1.0,
        0.0,
        0.0,
        0.0,
        0.0,
        1.0,
        0.0,
        0.0,
        0.0,
        0.0,
        1.0,
        0.0,
        -7.734813213348389,
        0.0,
        0.0,
        1.0
      ],
      "name": "EyeGlobeRight"
    },
    {
      "mesh": 4,
      "name": "EyeGlobeRight_SHD_Eye_0"
    },
    {
      "children": [
        14
      ],
      "name": "Boot"
    },
    {
      "mesh": 5,
      "name": "Boot_SHD_Clothes_0"
    },
    {
      "children": [
        16
      ],
      "name": "Pants"
    },
    {
      "mesh": 6,
      "name": "Pants_SHD_Clothes_0"
    },
    {
      "children": [
        18
      ],
      "name": "Jacket"
    },
    {
      "mesh": 7,
      "name": "Jacket_SHD_Clothes_0"
    },
    {
      "children": [
        20
      ],
      "name": "HeadHead"
    },
    {
      "mesh": 8,
      "name": "HeadHead_SHD_Skin_0"
    }
  ],
  "samplers": [
    {
      "magFilter": 9729,
      "minFilter": 9987,
      "wrapS": 10497,
      "wrapT": 10497
    }
  ],
  "scene": 0,
  "scenes": [
    {
      "name": "Sketchfab_Scene",
      "nodes": [
        0
      ]
    }
  ],
  "textures": [
    {
      "sampler": 0,
      "source": 0
    },
    {
      "sampler": 0,
      "source": 1
    },
    {
      "sampler": 0,
      "source": 2
    },
    {
      "sampler": 0,
      "source": 3
    },
    {
      "sampler": 0,
      "source": 4
    },
    {
      "sampler": 0,
      "source": 5
    },
    {
      "sampler": 0,
      "source": 6
    },
    {
      "sampler": 0,
      "source": 7
    },
    {
      "sampler": 0,
      "source": 8
    },
    {
      "sampler": 0,
      "source": 9
    },
    {
      "sampler": 0,
      "source": 10
    },
    {
      "sampler": 0,
      "source": 11
    }
  ]
}
